<svg width="50" height="48" viewBox="0 0 50 48" fill="none" xmlns="http://www.w3.org/2000/svg">
<path d="M50 31.2213C49.8431 35.911 48.6615 39.6699 46.4554 42.498C44.2489 45.3265 41.6276 46.7409 38.5916 46.7411C36.1186 46.7411 33.9512 45.357 32.0892 42.5888C30.2267 39.8207 29.2956 35.5626 29.2958 29.8145C29.2958 28.5439 29.3271 27.3337 29.3897 26.1841C29.4521 25.0347 29.5303 23.9456 29.6245 22.9168L31.2677 7.98685H20.4225C18.5447 26.8648 17.0032 38.0963 15.7982 41.6813C14.593 45.2662 12.5507 47.0587 9.67146 47.0588C8.37178 47.0279 7.13162 46.5258 6.19721 45.6521C5.65543 45.188 5.22701 44.6135 4.94285 43.97C4.65868 43.3265 4.52587 42.63 4.554 41.9308C4.554 40.5397 5.68857 38.596 7.95772 36.0996C10.2268 33.6037 11.4866 31.3271 11.7371 29.27L14.554 7.98686H10.0001C8.71633 7.99426 7.45287 8.29761 6.31469 8.87171C5.26708 9.33678 4.35551 10.0463 3.66204 10.9365L1.6432 13.8408H0C1.53323 9.24255 3.41901 5.78614 5.65733 3.47155C7.89471 1.15716 10.469 -1.82828e-05 13.3803 2.16643e-10H49.2489V7.98685H37.1362C36.7606 11.6172 36.471 15.2476 36.2676 18.8779C36.0637 22.5083 35.9621 26.1538 35.9625 29.8145C35.9625 32.2955 36.5572 34.3073 37.7466 35.85C38.9357 37.393 40.4224 38.1644 42.2067 38.1643C43.3019 38.1643 44.4521 37.7332 45.6574 36.871C46.2296 36.4829 46.7084 35.9799 47.0609 35.3964C47.4134 34.8129 47.6313 34.1627 47.6996 33.4903C47.7935 32.8251 47.8639 32.3032 47.9108 31.9247C47.9578 31.5467 47.9813 31.3122 47.9813 31.2213H50Z" fill="#28A1C7"/>
</svg>
